<?xml version="1.0" encoding="UTF-8"?>
<svg id="Capa_2" data-name="Capa 2" xmlns="http://www.w3.org/2000/svg" viewBox="0 0 86 86">
  <defs>
    <style>
      .cls-1 {
        fill: #dd0932;
      }
    </style>
  </defs>
  <g id="Capa_1-2" data-name="Capa 1">
    <path class="cls-1" d="M43,0C19.25,0,0,19.25,0,43s19.25,43,43,43,43-19.25,43-43S66.75,0,43,0ZM66.6,44.06c-4.38,4.38-8.75,8.75-13.13,13.13-1.37,1.37-3.49-.75-2.12-2.12,3.52-3.52,7.04-7.05,10.57-10.57H20.46c-1.93,0-1.93-3,0-3h41.46c-3.52-3.52-7.05-7.05-10.57-10.57-1.37-1.37.75-3.49,2.12-2.12,4.38,4.38,8.75,8.75,13.13,13.13.57.57.57,1.55,0,2.12Z"/>
  </g>
</svg>